<svg width="797" height="917" viewBox="0 0 797 917" fill="none" xmlns="http://www.w3.org/2000/svg">
<path d="M12.096 911.91C8.736 911.91 6.336 910.758 4.896 908.454C3.456 906.15 3.504 903.366 5.04 900.102L43.056 815.862C44.304 813.078 45.792 811.11 47.52 809.958C49.344 808.71 51.408 808.086 53.712 808.086C55.92 808.086 57.888 808.71 59.616 809.958C61.44 811.11 62.976 813.078 64.224 815.862L102.384 900.102C103.92 903.462 104.016 906.294 102.672 908.598C101.328 910.806 99.024 911.91 95.76 911.91C93.072 911.91 90.96 911.286 89.424 910.038C87.984 908.694 86.688 906.678 85.536 903.99L78.336 887.286H28.8L21.744 903.99C20.496 906.774 19.2 908.79 17.856 910.038C16.512 911.286 14.592 911.91 12.096 911.91ZM53.424 829.254L35.136 872.598H72L53.712 829.254H53.424ZM128.934 911.91C122.886 911.91 119.862 908.838 119.862 902.694V853.878H113.238C108.438 853.878 106.038 851.622 106.038 847.11C106.038 842.598 108.438 840.342 113.238 840.342H119.862V840.198C119.862 830.31 122.358 822.918 127.35 818.022C132.342 813.03 139.542 810.102 148.95 809.238L153.846 808.806C156.342 808.614 158.166 809.142 159.318 810.39C160.47 811.638 161.046 813.174 161.046 814.998C161.142 816.726 160.71 818.31 159.75 819.75C158.79 821.094 157.398 821.862 155.574 822.054L153.558 822.198C148.086 822.582 144.102 823.974 141.606 826.374C139.11 828.774 137.862 832.422 137.862 837.318V840.342H150.102C154.902 840.342 157.302 842.598 157.302 847.11C157.302 851.622 154.902 853.878 150.102 853.878H137.862V902.694C137.862 908.838 134.886 911.91 128.934 911.91ZM195.741 912.198C177.117 912.198 167.805 902.982 167.805 884.55V853.878H160.317C155.517 853.878 153.117 851.622 153.117 847.11C153.117 842.598 155.517 840.342 160.317 840.342H167.805V827.238C167.805 821.19 170.829 818.166 176.877 818.166C182.829 818.166 185.805 821.19 185.805 827.238V840.342H201.069C205.869 840.342 208.269 842.598 208.269 847.11C208.269 851.622 205.869 853.878 201.069 853.878H185.805V883.542C185.805 888.15 186.813 891.606 188.829 893.91C190.845 896.214 194.109 897.366 198.621 897.366C200.253 897.366 201.693 897.222 202.941 896.934C204.189 896.646 205.293 896.454 206.253 896.358C207.405 896.262 208.365 896.646 209.133 897.51C209.901 898.278 210.285 899.91 210.285 902.406C210.285 904.326 209.949 906.054 209.277 907.59C208.701 909.03 207.597 910.038 205.965 910.614C204.717 910.998 203.085 911.334 201.069 911.622C199.053 912.006 197.277 912.198 195.741 912.198ZM252.752 912.198C244.784 912.198 237.92 910.71 232.16 907.734C226.4 904.758 221.936 900.534 218.768 895.062C215.696 889.59 214.16 883.11 214.16 875.622C214.16 868.326 215.648 861.942 218.624 856.47C221.696 850.998 225.872 846.726 231.152 843.654C236.528 840.486 242.624 838.902 249.44 838.902C259.424 838.902 267.296 842.07 273.056 848.406C278.912 854.742 281.84 863.382 281.84 874.326C281.84 877.878 279.536 879.654 274.928 879.654H231.44C232.784 892.23 239.984 898.518 253.04 898.518C255.536 898.518 258.32 898.23 261.392 897.654C264.56 896.982 267.536 895.878 270.32 894.342C272.816 892.902 274.928 892.47 276.656 893.046C278.384 893.526 279.584 894.534 280.256 896.07C281.023 897.606 281.12 899.334 280.544 901.254C280.064 903.078 278.72 904.662 276.512 906.006C273.152 908.118 269.264 909.702 264.848 910.758C260.528 911.718 256.496 912.198 252.752 912.198ZM250.16 851.142C244.88 851.142 240.608 852.774 237.344 856.038C234.08 859.302 232.112 863.718 231.44 869.286H266.864C266.48 863.43 264.848 858.966 261.968 855.894C259.184 852.726 255.248 851.142 250.16 851.142ZM305.31 911.91C299.166 911.91 296.094 908.838 296.094 902.694V848.262C296.094 842.214 299.022 839.19 304.878 839.19C310.734 839.19 313.662 842.214 313.662 848.262V852.726C317.118 844.47 324.51 839.862 335.838 838.902C339.966 838.422 342.27 840.774 342.75 845.958C343.23 851.046 340.734 853.878 335.262 854.454L332.094 854.742C320.286 855.894 314.382 861.942 314.382 872.886V902.694C314.382 908.838 311.358 911.91 305.31 911.91ZM389.205 912.198C382.773 912.198 376.485 911.478 370.341 910.038C364.293 908.598 359.013 906.438 354.501 903.558C352.293 902.118 350.949 900.342 350.469 898.23C349.989 896.118 350.133 894.15 350.901 892.326C351.765 890.406 353.061 889.11 354.789 888.438C356.613 887.67 358.677 888.006 360.981 889.446C365.205 891.942 369.669 893.766 374.373 894.918C379.077 896.07 384.021 896.646 389.205 896.646C396.789 896.646 402.309 895.398 405.765 892.902C409.221 890.31 410.949 886.998 410.949 882.966C410.949 879.606 409.701 876.966 407.205 875.046C404.805 873.126 400.629 871.542 394.677 870.294L378.837 866.982C360.789 863.142 351.765 853.878 351.765 839.19C351.765 832.854 353.445 827.334 356.805 822.63C360.165 817.926 364.821 814.278 370.773 811.686C376.725 809.094 383.589 807.798 391.365 807.798C397.125 807.798 402.597 808.518 407.781 809.958C412.965 811.398 417.621 813.51 421.749 816.294C423.669 817.638 424.821 819.318 425.205 821.334C425.589 823.254 425.349 825.078 424.485 826.806C423.621 828.438 422.229 829.59 420.309 830.262C418.485 830.838 416.325 830.406 413.829 828.966C410.277 826.95 406.677 825.51 403.029 824.646C399.381 823.782 395.445 823.35 391.221 823.35C384.597 823.35 379.413 824.742 375.669 827.526C371.925 830.31 370.053 833.958 370.053 838.47C370.053 841.926 371.205 844.71 373.509 846.822C375.813 848.838 379.749 850.422 385.317 851.574L401.013 854.886C410.517 856.902 417.573 860.07 422.181 864.39C426.885 868.71 429.237 874.47 429.237 881.67C429.237 887.718 427.605 893.046 424.341 897.654C421.077 902.262 416.421 905.862 410.373 908.454C404.421 910.95 397.365 912.198 389.205 912.198ZM452.257 911.91C446.305 911.91 443.329 908.838 443.329 902.694V817.158C443.329 811.11 446.305 808.086 452.257 808.086C458.305 808.086 461.329 811.11 461.329 817.158V870.294H461.617L485.377 845.238C487.297 843.318 488.977 841.83 490.417 840.774C491.857 839.718 493.825 839.19 496.321 839.19C498.817 839.19 500.689 839.862 501.937 841.206C503.281 842.454 503.953 843.99 503.953 845.814C503.953 847.638 503.089 849.462 501.361 851.286L479.761 874.038L503.809 899.958C505.537 901.782 506.305 903.654 506.113 905.574C506.017 907.398 505.249 908.934 503.809 910.182C502.369 911.334 500.545 911.91 498.337 911.91C495.649 911.91 493.489 911.382 491.857 910.326C490.321 909.27 488.593 907.686 486.673 905.574L461.617 879.366H461.329V902.694C461.329 908.838 458.305 911.91 452.257 911.91ZM551.238 912.198C543.942 912.198 537.606 910.71 532.23 907.734C526.854 904.758 522.678 900.534 519.702 895.062C516.726 889.494 515.238 882.966 515.238 875.478C515.238 867.99 516.726 861.51 519.702 856.038C522.678 850.566 526.854 846.342 532.23 843.366C537.606 840.39 543.942 838.902 551.238 838.902C558.534 838.902 564.87 840.39 570.246 843.366C575.622 846.342 579.798 850.566 582.774 856.038C585.75 861.51 587.238 867.99 587.238 875.478C587.238 882.966 585.75 889.494 582.774 895.062C579.798 900.534 575.622 904.758 570.246 907.734C564.87 910.71 558.534 912.198 551.238 912.198ZM551.238 898.518C556.614 898.518 560.934 896.598 564.198 892.758C567.462 888.822 569.094 883.062 569.094 875.478C569.094 867.798 567.462 862.086 564.198 858.342C560.934 854.502 556.614 852.582 551.238 852.582C545.862 852.582 541.542 854.502 538.278 858.342C535.014 862.086 533.382 867.798 533.382 875.478C533.382 883.062 535.014 888.822 538.278 892.758C541.542 896.598 545.862 898.518 551.238 898.518ZM634.206 912.198C626.91 912.198 620.574 910.71 615.198 907.734C609.822 904.758 605.646 900.534 602.67 895.062C599.694 889.494 598.206 882.966 598.206 875.478C598.206 867.99 599.694 861.51 602.67 856.038C605.646 850.566 609.822 846.342 615.198 843.366C620.574 840.39 626.91 838.902 634.206 838.902C641.502 838.902 647.838 840.39 653.214 843.366C658.59 846.342 662.766 850.566 665.742 856.038C668.718 861.51 670.206 867.99 670.206 875.478C670.206 882.966 668.718 889.494 665.742 895.062C662.766 900.534 658.59 904.758 653.214 907.734C647.838 910.71 641.502 912.198 634.206 912.198ZM634.206 898.518C639.582 898.518 643.902 896.598 647.166 892.758C650.43 888.822 652.062 883.062 652.062 875.478C652.062 867.798 650.43 862.086 647.166 858.342C643.902 854.502 639.582 852.582 634.206 852.582C628.83 852.582 624.51 854.502 621.246 858.342C617.982 862.086 616.35 867.798 616.35 875.478C616.35 883.062 617.982 888.822 621.246 892.758C624.51 896.598 628.83 898.518 634.206 898.518ZM709.111 912.198C693.079 912.198 685.063 903.222 685.063 885.27V817.158C685.063 811.11 688.039 808.086 693.991 808.086C700.039 808.086 703.063 811.11 703.063 817.158V884.406C703.063 893.046 706.663 897.366 713.863 897.366C714.631 897.366 715.351 897.366 716.023 897.366C716.695 897.27 717.367 897.174 718.039 897.078C719.383 896.886 720.295 897.27 720.775 898.23C721.255 899.094 721.495 900.918 721.495 903.702C721.495 906.102 721.015 907.974 720.055 909.318C719.095 910.662 717.511 911.478 715.303 911.766C713.287 912.054 711.223 912.198 709.111 912.198Z" fill="#333333"/>
<path d="M362.273 714.059C550.752 714.059 702.993 556.028 702.993 361.779C702.993 167.531 550.752 9.5 362.273 9.5C173.793 9.5 21.5519 167.531 21.5519 361.779C21.5519 556.028 173.793 714.059 362.273 714.059Z" fill="black" stroke="white" stroke-width="19"/>
<path d="M325.382 53.2777C323.027 54.6488 319.788 59.2192 317.139 65.0084C308.895 83.29 300.21 104.314 300.798 104.771C304.331 107.665 357.18 130.213 358.21 129.146C358.799 128.537 363.362 118.33 368.22 106.599C377.642 83.8993 379.114 76.4344 374.698 70.9499C371.901 67.5983 336.423 50.9925 332.007 50.9925C330.535 51.1449 327.591 52.0589 325.382 53.2777Z" fill="white" stroke="black" stroke-width="0.2"/>
<path d="M356.444 146.971C350.997 150.018 348.789 152.15 347.317 156.416C346.728 158.244 348.936 157.33 355.266 153.522C359.977 150.627 363.951 147.123 363.951 146.057C363.951 143.314 362.921 143.467 356.444 146.971Z" fill="white" stroke="black" stroke-width="0.2"/>
<path d="M356.296 164.186C344.814 171.194 340.251 175.917 344.814 175.917C347.022 175.917 369.545 162.358 370.723 160.377C373.52 155.807 367.632 157.33 356.296 164.186Z" fill="white" stroke="black" stroke-width="0.2"/>
<path d="M372.784 171.498C360.271 179.116 349.819 185.514 349.672 185.667C349.525 185.819 349.966 186.733 350.555 187.952C351.439 189.475 357.621 186.428 375.286 175.612C388.977 167.233 398.545 160.53 398.104 159.463C397.809 158.397 397.073 157.635 396.632 157.635C396.043 157.635 385.297 163.881 372.784 171.498Z" fill="white" stroke="black" stroke-width="0.2"/>
<path d="M371.606 189.475C357.327 198.007 355.119 199.835 358.357 201.054C360.713 201.968 386.033 187.343 386.033 185.057C386.033 181.706 382.941 182.772 371.606 189.475Z" fill="white" stroke="black" stroke-width="0.2"/>
<path d="M377.642 202.882C368.073 208.671 364.393 211.718 364.982 213.394C365.571 215.222 367.337 214.613 374.109 210.652C378.672 208.062 384.855 204.406 387.799 202.73C393.099 199.683 394.865 196.788 392.363 195.265C391.627 194.96 385.15 198.312 377.642 202.882Z" fill="white" stroke="black" stroke-width="0.2"/>
<path d="M385.297 215.527C378.819 219.64 372.931 223.296 372.048 223.601C371.165 224.058 371.165 224.972 372.342 226.191C373.667 227.715 376.759 226.496 387.505 219.945C399.576 212.632 402.373 209.585 398.398 208.519C397.662 208.367 391.774 211.413 385.297 215.527Z" fill="white" stroke="black" stroke-width="0.2"/>
<path d="M392.363 228.476C380.881 235.484 378.672 236.398 377.053 234.418C375.581 232.589 369.987 232.285 344.52 232.589H307.069L272.093 320.645C254.722 368.939 237.352 411.901 237.352 412.815C237.352 413.729 245.154 419.061 254.722 424.698L272.093 434.905H346.434C387.358 434.905 421.216 435.21 421.658 435.667C422.099 436.124 419.891 445.57 416.947 456.691L411.5 476.801L345.403 477.715C309.042 478.172 262.907 477.41 243.769 477.562C224.485 477.562 200.343 474.515 200.343 475.277C200.343 475.886 217.272 495.082 234.937 514.887C255.007 537.388 269.296 552.364 272.976 554.193C278.129 556.782 283.575 556.935 373.52 555.868C440.059 555.107 468.912 554.345 469.353 553.126C469.648 552.212 475.389 527.989 482.161 499.196L494.232 447.093L500.12 443.894C522.496 431.554 543.252 417.69 542.516 415.862C541.927 414.186 541.044 414.034 538.983 415.253C535.303 417.233 504.536 435.819 498.501 439.628L494.084 442.37L491.582 437.952L489.079 433.687L502.328 425.765C509.541 421.347 515.577 416.776 515.577 415.71C515.577 412.358 513.516 413.12 500.267 421.194C493.348 425.46 487.46 428.812 487.018 428.812C486.577 428.812 485.252 426.983 484.074 424.546L482.013 420.432L495.851 412.206C506.744 405.807 509.394 403.674 508.217 401.999C506.892 400.475 503.8 401.694 493.054 408.245L479.658 416.471L477.008 412.358C475.683 410.225 474.653 408.245 474.8 408.092C474.947 407.788 481.13 403.979 488.638 399.561C498.501 393.467 501.887 390.877 500.856 389.354C499.973 387.678 496.734 389.049 486.135 395.295C473.181 402.913 472.298 403.217 470.531 400.627C469.353 399.104 468.47 396.971 468.47 396.057C468.47 395.295 474.358 390.877 481.719 386.459C491.14 380.822 494.673 377.928 494.084 376.252C493.054 373.662 493.643 373.51 476.714 383.869C470.384 387.678 465.084 390.725 464.79 390.42C464.054 389.354 461.11 383.26 461.11 382.498C461.11 382.194 471.12 375.795 483.191 368.482C495.409 361.17 505.714 354.619 506.303 353.705C506.744 352.943 506.45 351.724 505.714 350.962C504.978 350.201 494.821 355.533 481.866 363.303C469.501 370.92 458.754 377.014 458.165 377.014C456.988 377.014 453.013 369.549 453.896 368.939C454.191 368.635 460.079 365.131 466.998 361.017C482.161 352.029 481.13 352.943 479.069 350.81C477.891 349.591 474.064 351.115 464.054 357.209C456.693 361.474 450.363 364.978 450.216 364.674C449.922 364.369 448.891 362.388 447.861 360.408C445.8 356.295 444.622 357.513 461.551 347.154C467.734 343.345 472.886 339.537 472.886 338.927C472.886 335.423 469.206 336.642 456.693 344.259L443.15 352.638H366.748C324.794 352.638 290.347 352.486 290.347 352.181C290.347 351.877 292.261 342.888 294.763 331.919C297.118 321.103 299.179 311.809 299.179 311.048C299.179 310.438 325.972 309.981 358.799 309.981C413.708 309.981 418.566 309.829 418.125 307.391C417.83 305.716 421.51 302.669 430.49 297.184C437.556 292.918 443.444 288.5 443.444 287.434C443.444 284.387 440.206 285.301 431.226 290.938C414.444 301.45 414.444 301.45 411.942 296.727L409.881 292.461L423.571 284.082C433.876 277.684 437.114 275.094 436.084 273.418C435.054 271.742 432.257 272.961 422.099 279.207C415.033 283.625 408.85 287.129 408.114 287.129C407.525 287.129 405.906 285.454 404.581 283.473L402.226 279.664L415.475 271.742C429.754 263.211 431.521 261.687 428.282 260.316C427.104 259.859 420.333 263.059 413.414 267.324C401.195 274.789 400.459 275.094 398.546 272.352C397.368 270.828 396.338 268.848 396.338 267.781C396.338 266.867 402.226 262.449 409.586 258.184C418.861 252.699 422.394 249.804 421.805 248.281C421.363 247.062 420.921 245.996 420.627 245.996C420.48 245.996 414.003 249.804 406.495 254.375L392.657 262.602L390.744 258.793C389.713 256.812 389.124 254.527 389.566 253.765C390.008 253.156 400.312 246.605 412.531 239.293C424.602 231.98 434.612 225.429 434.612 224.667C434.612 220.859 429.901 222.839 408.85 235.484C387.063 248.738 385.738 249.195 383.825 246.605C382.647 244.929 381.617 242.949 381.617 242.187C381.617 241.273 387.505 237.007 394.865 232.589C404.287 226.953 407.82 224.058 407.231 222.382C406.642 221.163 406.201 220.097 406.053 220.097C406.053 220.097 399.871 223.906 392.363 228.476Z" fill="white" stroke="black" stroke-width="0.2"/>
<path d="M445.653 299.317C433.581 306.782 423.424 313.943 423.13 315.161C422.835 316.532 423.13 317.599 423.718 317.599C424.307 317.599 435.201 311.353 448.008 303.583C463.318 294.442 470.825 288.958 470.384 287.587C469.942 286.52 469.206 285.606 468.617 285.758C468.176 285.758 457.871 291.852 445.653 299.317Z" fill="white" stroke="black" stroke-width="0.2"/>
<path d="M442.267 318.665C430.49 325.826 426.81 329.787 431.815 329.787C433.876 329.787 456.399 316.228 457.576 314.247C458.018 313.486 457.871 312.267 457.282 311.505C456.546 310.743 449.774 313.943 442.267 318.665Z" fill="white" stroke="black" stroke-width="0.2"/>
<path d="M449.333 331.463C442.414 335.728 436.673 339.385 436.526 339.537C436.378 339.689 436.82 340.756 437.409 341.822C438.292 343.346 441.825 341.822 452.13 335.728C464.348 328.263 467.145 325.369 463.17 324.15C462.434 323.998 456.252 327.197 449.333 331.463Z" fill="white" stroke="black" stroke-width="0.2"/>
<path d="M514.841 446.636C507.628 451.054 501.739 455.168 501.886 455.625C502.034 455.929 502.328 456.996 502.622 457.91C503.358 460.043 530.298 443.894 530.298 441.456C530.298 437.8 527.795 438.562 514.841 446.636Z" fill="white" stroke="black" stroke-width="0.2"/>
<path d="M522.201 459.433C515.724 463.394 509.836 467.051 508.953 467.355C508.069 467.812 508.069 468.726 509.247 469.945C510.572 471.469 513.81 470.097 524.41 463.851C536.333 456.843 539.572 453.339 535.303 452.273C534.567 452.121 528.679 455.32 522.201 459.433Z" fill="white" stroke="black" stroke-width="0.2"/>
<path d="M529.267 472.383C519.404 478.324 515.871 481.219 516.607 482.895C517.343 484.875 518.227 484.723 522.79 481.98C525.734 480.152 531.623 476.648 535.745 474.211C544.283 469.183 546.049 467.355 544.136 465.375C543.4 464.613 536.775 467.812 529.267 472.383Z" fill="white" stroke="black" stroke-width="0.2"/>
<path d="M536.186 485.332C521.318 494.473 522.054 494.016 523.968 495.997C525.145 497.215 529.415 495.387 538.983 489.598C551.202 482.133 553.851 479.238 550.024 478.02C549.288 477.867 543.105 481.067 536.186 485.332Z" fill="white" stroke="black" stroke-width="0.2"/>
<path d="M554.587 491.426C542.516 498.891 531.917 505.137 531.034 505.594C530.151 505.899 530.151 506.813 531.328 508.032C532.653 509.555 537.658 507.118 555.323 496.606C567.542 489.141 577.846 482.59 578.435 481.676C578.877 480.914 578.582 479.848 577.994 479.086C577.258 478.324 566.806 483.961 554.587 491.426Z" fill="white" stroke="black" stroke-width="0.2"/>
<path d="M550.171 511.231C538.542 518.544 536.333 520.676 538.836 522.2C540.455 523.419 566.217 507.727 566.07 505.746C565.481 502.547 561.506 503.918 550.171 511.231Z" fill="white" stroke="black" stroke-width="0.2"/>
<path d="M557.973 523.723C550.76 527.989 545.019 532.407 545.019 533.474C545.019 536.673 547.669 535.759 561.212 527.532C569.75 522.505 573.872 519.001 573.43 517.63C572.4 514.887 572.253 514.887 557.973 523.723Z" fill="white" stroke="black" stroke-width="0.2"/>
<path d="M564.892 536.673C558.415 540.634 553.115 544.9 553.115 546.119C553.115 547.337 553.851 548.251 554.587 548.099C558.268 547.49 581.821 532.103 581.085 530.732C579.613 528.294 576.963 529.208 564.892 536.673Z" fill="white" stroke="black" stroke-width="0.2"/>
<path d="M572.694 549.318C565.481 553.583 559.74 558.001 559.74 559.22C559.74 560.439 560.329 561.353 561.065 561.353C564.009 561.353 587.71 545.661 587.71 543.681C587.71 540.482 586.532 540.939 572.694 549.318Z" fill="white" stroke="black" stroke-width="0.2"/>
<path d="M588.445 556.935C576.374 564.248 566.364 570.951 566.511 571.56C566.806 574.912 572.694 572.322 592.715 560.134C613.029 547.794 617.299 544.29 612.441 543.528C611.41 543.376 600.664 549.47 588.445 556.935Z" fill="white" stroke="black" stroke-width="0.2"/>
<path d="M305.99 104.557L131.154 537.739" stroke="white" stroke-width="6"/>
<path d="M204.759 476.801L171.637 556.021" stroke="white" stroke-width="6"/>
<path d="M139.194 584.804C136.767 586.567 133.327 585.01 132.929 581.969L130.328 562.084L128.587 548.769L127.716 542.112L127.281 538.783L127.063 537.119L126.954 536.287L126.9 535.871L126.872 535.663V535.663C126.86 535.571 126.951 535.503 127.034 535.54L176.133 557.758C176.217 557.796 176.23 557.911 176.156 557.964V557.964L176.076 558.023C176.019 558.064 175.966 558.111 175.918 558.163V558.163C175.858 558.228 175.791 558.285 175.718 558.333L174.994 558.809L173.665 559.773L171.009 561.703L165.695 565.561L155.067 573.278L139.194 584.804Z" fill="white"/>
</svg>
